<?xml version="1.0" encoding="UTF-8"?>
<svg version="1.1" xmlns="http://www.w3.org/2000/svg" width="2000" height="2000">
<path d="M0 0 C1.66634139 -0.00702656 3.33268253 -0.01411334 4.99902344 -0.02125549 C10.29362379 -0.04064019 15.58818023 -0.04568996 20.8828125 -0.046875 C21.78627663 -0.04731686 22.68974075 -0.04775871 23.62058258 -0.04821396 C51.85193107 -0.05544962 79.89768021 0.34317546 108.0078125 3.203125 C108.88479797 3.29033813 109.76178345 3.37755127 110.66534424 3.46740723 C194.62357824 11.84085881 277.56523614 30.27173819 495.0078125 126.203125 C496.12430176 126.85200684 497.24079102 127.50088867 498.39111328 128.16943359 C518.7971362 140.05993589 538.49972199 152.89801146 558.0078125 166.203125 C559.01618164 166.88922852 560.02455078 167.57533203 561.06347656 168.28222656 C574.04959345 177.14841784 586.58652272 186.56502878 599.0078125 196.203125 C599.70197266 196.74130859 600.39613281 197.27949219 601.11132812 197.83398438 C612.74098569 206.86888417 624.10176878 216.2133366 635.31201172 225.76171875 C637.01016096 227.20512116 638.71371443 228.64193923 640.41796875 230.078125 C648.47671988 236.89540209 656.22850078 243.9917452 663.90063477 251.23950195 C665.44408731 252.67780444 667.00127629 254.10140436 668.56616211 255.51635742 C676.68546576 262.86285242 684.47018962 270.51181743 692.20043945 278.26538086 C694.33105884 280.40139857 696.46702473 282.53196618 698.60351562 284.66210938 C699.984696 286.04395007 701.36556639 287.42610067 702.74609375 288.80859375 C703.37228104 289.43275681 703.99846832 290.05691986 704.64363098 290.69999695 C708.38378425 294.45975365 711.93928677 298.33272316 715.39692688 302.35412598 C718.13281449 305.49441941 721.01830508 308.49316172 723.8828125 311.515625 C728.69714577 316.63469499 733.28871261 321.84583386 737.67578125 327.33984375 C740.49785616 330.8048034 743.43721283 334.1557603 746.3828125 337.515625 C751.9931884 343.94380924 757.32250379 350.54195068 762.53173828 357.29736328 C764.12652729 359.35639785 765.73593541 361.4034139 767.34765625 363.44921875 C775.51635588 373.83964078 783.36361333 384.42191956 791.0078125 395.203125 C791.575 395.99976563 792.1421875 396.79640625 792.7265625 397.6171875 C816.46424687 430.99830614 837.76733487 466.05013451 857.0078125 502.203125 C857.55405273 503.22712402 858.10029297 504.25112305 858.66308594 505.30615234 C898.91074064 581.03740678 928.02245089 662.56105822 962.1953125 850.328125 C962.27421722 851.08543915 962.35312195 851.8427533 962.43441772 852.62301636 C965.44117256 881.83302818 966.38909216 910.98506646 966.32587051 940.32928848 C966.3202146 942.99934194 966.31740379 945.66938901 966.31478882 948.33944702 C966.27753084 974.53494756 965.86099353 1000.60258117 963.2578125 1026.68927002 C962.99871651 1029.29458901 962.75076027 1031.90081878 962.50390625 1034.50732422 C953.76141386 1125.56555164 931.81063589 1214.92928488 853.47851562 1392.546875 C852.00258271 1395.21257056 850.55561329 1397.89202541 849.1171875 1400.578125 C832.43551944 1431.68362326 813.45496061 1461.44783274 793.0078125 1490.203125 C792.41307129 1491.04020996 791.81833008 1491.87729492 791.20556641 1492.73974609 C784.33584888 1502.38432848 777.30718154 1511.87936677 770.0078125 1521.203125 C769.09240593 1522.37757144 768.17704268 1523.55205165 767.26171875 1524.7265625 C758.56776175 1535.85899476 749.60773562 1546.75480118 740.44921875 1557.50732422 C739.00581634 1559.20547346 737.56899827 1560.90902693 736.1328125 1562.61328125 C729.31494697 1570.67272798 722.21810529 1578.42532242 714.96948242 1586.09790039 C713.5375029 1587.63467194 712.12037358 1589.1853197 710.7121582 1590.74389648 C703.22716869 1599.02041184 695.41974309 1606.94454249 687.51831055 1614.82299805 C685.30986587 1617.0260461 683.10686699 1619.23443969 680.90429688 1621.44335938 C679.47688326 1622.87011265 678.04915973 1624.29655595 676.62109375 1625.72265625 C675.6520385 1626.69474785 675.6520385 1626.69474785 674.66340637 1627.68647766 C670.84310068 1631.48750272 666.91404814 1635.10735213 662.82775879 1638.62129211 C659.87226647 1641.19010141 657.04321621 1643.89145443 654.1953125 1646.578125 C649.15349607 1651.30059932 643.98416683 1655.7696465 638.58984375 1660.08984375 C635.96359482 1662.23931526 633.45147797 1664.47772588 630.9453125 1666.765625 C626.13290325 1671.1398557 621.12581375 1675.19390164 616.0078125 1679.203125 C615.01652344 1679.98945312 614.02523438 1680.77578125 613.00390625 1681.5859375 C605.95356594 1687.17193543 598.8356339 1692.67027541 591.6953125 1698.140625 C590.8911792 1698.76001953 590.0870459 1699.37941406 589.25854492 1700.01757812 C575.34214496 1710.64290989 560.83266456 1720.44892296 546.2578125 1730.140625 C545.47311584 1730.66292694 544.68841919 1731.18522888 543.87994385 1731.72335815 C531.73794664 1739.7982651 519.55324614 1747.76447126 507.0078125 1755.203125 C506.05986816 1755.76692871 505.11192383 1756.33073242 504.13525391 1756.91162109 C486.63956903 1767.27101892 468.78287377 1776.90852651 450.75146484 1786.29486084 C449.1755931 1787.1157285 447.60136873 1787.93975684 446.02734375 1788.76416016 C407.00189289 1809.12433607 365.66251804 1825.39928917 324.01715088 1839.52142334 C322.0670061 1840.18304258 320.11817569 1840.84842291 318.16943359 1841.51416016 C245.26850495 1866.26453413 168.99552218 1880.23620373 92.37890625 1886.44140625 C91.61056458 1886.50465591 90.8422229 1886.56790558 90.05059814 1886.6330719 C75.04829087 1887.80558157 60.06077511 1888.36661551 45.015625 1888.40625 C43.34928361 1888.41327656 41.68294247 1888.42036334 40.01660156 1888.42750549 C34.72200121 1888.44689019 29.42744477 1888.45193996 24.1328125 1888.453125 C22.77761631 1888.45378778 22.77761631 1888.45378778 21.39504242 1888.45446396 C-6.83630607 1888.46169962 -34.88205521 1888.06307454 -62.9921875 1885.203125 C-63.86917297 1885.11591187 -64.74615845 1885.02869873 -65.64971924 1884.93884277 C-149.60795324 1876.56539119 -232.54961114 1858.13451181 -449.9921875 1762.203125 C-451.10867676 1761.55424316 -452.22516602 1760.90536133 -453.37548828 1760.23681641 C-473.7815112 1748.34631411 -493.48409699 1735.50823854 -512.9921875 1722.203125 C-514.00055664 1721.51702148 -515.00892578 1720.83091797 -516.04785156 1720.12402344 C-529.03396845 1711.25783216 -541.57089772 1701.84122122 -553.9921875 1692.203125 C-554.68634766 1691.66494141 -555.38050781 1691.12675781 -556.09570312 1690.57226562 C-567.72536069 1681.53736583 -579.08614378 1672.1929134 -590.29638672 1662.64453125 C-591.99453596 1661.20112884 -593.69808943 1659.76431077 -595.40234375 1658.328125 C-603.46109488 1651.51084791 -611.21287578 1644.4145048 -618.88500977 1637.16674805 C-620.42846231 1635.72844556 -621.98565129 1634.30484564 -623.55053711 1632.88989258 C-631.66984076 1625.54339758 -639.45456462 1617.89443257 -647.18481445 1610.14086914 C-649.31543384 1608.00485143 -651.45139973 1605.87428382 -653.58789062 1603.74414062 C-654.969071 1602.36229993 -656.34994139 1600.98014933 -657.73046875 1599.59765625 C-658.35665604 1598.97349319 -658.98284332 1598.34933014 -659.62800598 1597.70625305 C-663.36815925 1593.94649635 -666.92366177 1590.07352684 -670.38130188 1586.05212402 C-673.11718949 1582.91183059 -676.00268008 1579.91308828 -678.8671875 1576.890625 C-683.68152077 1571.77155501 -688.27308761 1566.56041614 -692.66015625 1561.06640625 C-695.48223116 1557.6014466 -698.42158783 1554.2504897 -701.3671875 1550.890625 C-706.9775634 1544.46244076 -712.30687879 1537.86429932 -717.51611328 1531.10888672 C-719.11090229 1529.04985215 -720.72031041 1527.0028361 -722.33203125 1524.95703125 C-730.50073088 1514.56660922 -738.34798833 1503.98433044 -745.9921875 1493.203125 C-746.559375 1492.40648437 -747.1265625 1491.60984375 -747.7109375 1490.7890625 C-756.47173808 1478.46918669 -764.87188588 1465.9535466 -772.9921875 1453.203125 C-773.57581055 1452.29111328 -774.15943359 1451.37910156 -774.76074219 1450.43945312 C-816.51199689 1385.06430202 -849.32582998 1314.69077389 -921.31024551 948.07696152 C-921.3045896 945.40690806 -921.30177879 942.73686099 -921.29916382 940.06680298 C-921.26190584 913.87130244 -920.84536853 887.80366883 -918.2421875 861.71697998 C-917.98309151 859.11166099 -917.73513527 856.50543122 -917.48828125 853.89892578 C-908.74578886 762.84069836 -886.79501089 673.47696512 -808.46289062 495.859375 C-806.98695771 493.19367944 -805.53998829 490.51422459 -804.1015625 487.828125 C-787.41989444 456.72262674 -768.43933561 426.95841726 -747.9921875 398.203125 C-747.39744629 397.36604004 -746.80270508 396.52895508 -746.18994141 395.66650391 C-739.32022388 386.02192152 -732.29155654 376.52688323 -724.9921875 367.203125 C-724.07678093 366.02867856 -723.16141768 364.85419835 -722.24609375 363.6796875 C-713.55213675 352.54725524 -704.59211062 341.65144882 -695.43359375 330.89892578 C-693.99019134 329.20077654 -692.55337327 327.49722307 -691.1171875 325.79296875 C-684.29932197 317.73352202 -677.20248029 309.98092758 -669.95385742 302.30834961 C-668.5218779 300.77157806 -667.10474858 299.2209303 -665.6965332 297.66235352 C-658.21154369 289.38583816 -650.40411809 281.46170751 -642.50268555 273.58325195 C-640.29424087 271.3802039 -638.09124199 269.17181031 -635.88867188 266.96289062 C-634.46125826 265.53613735 -633.03353473 264.10969405 -631.60546875 262.68359375 C-630.95943192 262.03553268 -630.31339508 261.38747162 -629.64778137 260.71977234 C-625.82747568 256.91874728 -621.89842314 253.29889787 -617.81213379 249.78495789 C-614.85664147 247.21614859 -612.02759121 244.51479557 -609.1796875 241.828125 C-604.13787107 237.10565068 -598.96854183 232.6366035 -593.57421875 228.31640625 C-590.94796982 226.16693474 -588.43585297 223.92852412 -585.9296875 221.640625 C-581.11727825 217.2663943 -576.11018875 213.21234836 -570.9921875 209.203125 C-570.00089844 208.41679687 -569.00960938 207.63046875 -567.98828125 206.8203125 C-560.93794094 201.23431457 -553.8200089 195.73597459 -546.6796875 190.265625 C-545.8755542 189.64623047 -545.0714209 189.02683594 -544.24291992 188.38867188 C-530.32651996 177.76334011 -515.81703956 167.95732704 -501.2421875 158.265625 C-500.45749084 157.74332306 -499.67279419 157.22102112 -498.86431885 156.68289185 C-486.72232164 148.6079849 -474.53762114 140.64177874 -461.9921875 133.203125 C-461.04424316 132.63932129 -460.09629883 132.07551758 -459.11962891 131.49462891 C-441.62394403 121.13523108 -423.76724877 111.49772349 -405.73583984 102.11138916 C-404.1599681 101.2905215 -402.58574373 100.46649316 -401.01171875 99.64208984 C-328.54564575 61.83542876 -248.68182902 35.43262906 -159.9921875 17.203125 C-158.96786621 16.99716705 -158.96786621 16.99716705 -157.92285156 16.78704834 C-125.05253934 10.19656656 -91.82268576 5.76600663 -58.4296875 2.890625 C-57.48558014 2.80931335 -56.54147278 2.72800171 -55.5687561 2.64422607 C-52.8340307 2.41209147 -50.09886915 2.18656856 -47.36328125 1.96484375 C-46.59488922 1.90158401 -45.82649719 1.83832428 -45.03482056 1.77314758 C-30.03254928 0.60075885 -15.04510794 0.03963438 0 0 Z " fill="#6200B2" transform="translate(974.9921875,60.796875)"/>
<path d="M0 0 C2.64350778 0.01612342 5.28549228 0.00002575 7.92895508 -0.01904297 C21.81981695 -0.03683124 34.76889773 1.73996753 48.0793457 5.89111328 C48.75094727 6.09091797 49.42254883 6.29072266 50.11450195 6.49658203 C56.94702435 8.56345297 63.5625024 11.1283204 70.1418457 13.89111328 C71.10219727 14.29330078 72.06254883 14.69548828 73.05200195 15.10986328 C74.05102539 15.53267578 75.05004883 15.95548828 76.0793457 16.39111328 C77.18922852 16.84615234 78.29911133 17.30119141 79.44262695 17.77001953 C83.50366553 19.58025692 87.33846201 21.63989463 91.2043457 23.82861328 C91.89399414 24.21082031 92.58364258 24.59302734 93.29418945 24.98681641 C97.18436672 27.17736555 100.64129779 29.51882009 104.0793457 32.39111328 C104.8837207 32.86548828 105.6880957 33.33986328 106.5168457 33.82861328 C109.6370874 35.73119968 112.27396142 38.05329305 115.0793457 40.39111328 C115.8630957 40.84744141 116.6468457 41.30376953 117.4543457 41.77392578 C120.30416372 43.52961724 122.61211245 45.50705284 125.0793457 47.76611328 C125.94946289 48.56017578 126.81958008 49.35423828 127.71606445 50.17236328 C129.48867368 51.836565 131.20886496 53.51367619 132.8918457 55.26611328 C134.94178238 57.44091991 134.94178238 57.44091991 137.31646031 58.63970262 C140.84048487 60.87360425 143.54580484 63.58498176 146.47301197 66.53868389 C147.10347946 67.16684369 147.73394694 67.79500348 148.3835195 68.44219843 C150.50287392 70.55624321 152.61499705 72.67736831 154.72724915 74.79850769 C156.25731362 76.32770029 157.7878174 77.85645344 159.31872338 79.38480359 C163.53051841 83.59211741 167.73603645 87.80565752 171.94058001 92.02021635 C176.47339223 96.56164958 181.01196634 101.09731797 185.54985046 105.63368225 C193.4133371 113.49611918 201.27318254 121.36218048 209.13048744 129.23079491 C217.37171858 137.48385778 225.61501244 145.73485133 233.86107445 153.98308754 C234.37367906 154.49582963 234.88628367 155.00857172 235.41442175 155.53685145 C238.0176642 158.14077056 240.6209436 160.74465273 243.22423723 163.34852067 C261.66602643 181.79451133 280.10317379 200.2451352 298.53759766 218.69848633 C316.44703371 236.6262894 334.35856802 254.55199184 352.27294922 272.47485352 C352.82509228 273.02725962 353.37723533 273.57966573 353.94611 274.14881142 C359.49093097 279.69626942 365.03579464 285.24368473 370.58068961 290.79106876 C381.87640284 302.09185449 393.171831 313.39292515 404.46708679 324.69416809 C404.98643124 325.21378712 405.5057757 325.73340615 406.04085786 326.26877122 C440.72512979 360.97144625 475.40273465 395.6807833 510.0793457 430.39111328 C511.18949633 429.44706565 512.29857072 428.50175235 513.40719956 427.5559181 C514.02493243 427.02963499 514.64266531 426.50335189 515.27911736 425.96112081 C517.80120893 423.76156498 520.16214921 421.42446858 522.52339172 419.05386353 C523.27519511 418.30122508 523.27519511 418.30122508 524.04218644 417.53338182 C525.69930456 415.87325924 527.35281234 414.20958901 529.00634766 412.54589844 C530.20273011 411.34595483 531.39935121 410.14624913 532.59619141 408.94676208 C535.16315268 406.37327556 537.7285963 403.79828912 540.29290199 401.22215652 C544.3550003 397.14167746 548.42151959 393.06562353 552.48881531 388.99032593 C564.05068364 377.40437358 575.60664432 365.81253957 587.15820312 354.21630859 C593.54578159 347.8041063 599.93700886 341.39556298 606.33209962 334.99085271 C610.36856841 330.94787629 614.40050656 326.90045369 618.429052 322.84958291 C620.9457965 320.32103033 623.46678815 317.79674485 625.98894501 315.273592 C627.14918057 314.111226 628.3077154 312.94715923 629.46432304 311.78118324 C635.36959763 305.829973 641.31935416 300.14479242 647.98338604 295.02686119 C651.5621253 292.23390894 654.78806067 289.07329435 658.03833008 285.91064453 C661.75996326 282.39111328 661.75996326 282.39111328 665.0793457 282.39111328 C665.0793457 281.73111328 665.0793457 281.07111328 665.0793457 280.39111328 C666.72491137 279.35675772 668.39640651 278.36347815 670.0793457 277.39111328 C670.8630957 276.75173828 671.6468457 276.11236328 672.4543457 275.45361328 C674.92472934 273.51259757 677.44468046 271.97547873 680.19262695 270.46142578 C682.20506703 269.31979311 684.13609533 268.08402068 686.0793457 266.82861328 C689.61095688 264.60098161 693.21172202 262.97960158 697.0793457 261.39111328 C698.41684299 260.71174958 699.75007019 260.02392663 701.0793457 259.32861328 C704.6516859 257.50809376 708.22152538 256.49334766 712.0793457 255.39111328 C713.31090465 254.77964705 714.53048809 254.1436847 715.73950195 253.48876953 C720.04607608 251.2994049 724.3442766 250.00169276 729.0168457 248.82861328 C729.74452148 248.63332031 730.47219727 248.43802734 731.22192383 248.23681641 C745.52309417 244.54425182 759.25176832 242.89335663 774 243 C776.64350778 243.01612342 779.28549228 243.00002575 781.92895508 242.98095703 C795.81981695 242.96316876 808.76889773 244.73996753 822.0793457 248.89111328 C823.08674805 249.19082031 823.08674805 249.19082031 824.11450195 249.49658203 C830.94702435 251.56345297 837.5625024 254.1283204 844.1418457 256.89111328 C845.10219727 257.29330078 846.06254883 257.69548828 847.05200195 258.10986328 C848.05102539 258.53267578 849.05004883 258.95548828 850.0793457 259.39111328 C851.18922852 259.84615234 852.29911133 260.30119141 853.44262695 260.77001953 C857.50366553 262.58025692 861.33846201 264.63989463 865.2043457 266.82861328 C866.23881836 267.40192383 866.23881836 267.40192383 867.29418945 267.98681641 C871.18436672 270.17736555 874.64129779 272.51882009 878.0793457 275.39111328 C878.8837207 275.86548828 879.6880957 276.33986328 880.5168457 276.82861328 C883.6370874 278.73119968 886.27396142 281.05329305 889.0793457 283.39111328 C890.2549707 284.07560547 890.2549707 284.07560547 891.4543457 284.77392578 C894.30416372 286.52961724 896.61211245 288.50705284 899.0793457 290.76611328 C899.94946289 291.56017578 900.81958008 292.35423828 901.71606445 293.17236328 C903.48867368 294.836565 905.20886496 296.51367619 906.8918457 298.26611328 C908.92718852 300.43402839 908.92718852 300.43402839 911.24163055 301.56788826 C915.22044372 304.12426596 918.33621923 307.35189318 921.67028809 310.68771362 C922.42648957 311.43656173 923.18269105 312.18540983 923.96180773 312.95695031 C926.49601707 315.46912258 929.0230257 317.98841314 931.55004883 320.5078125 C933.36494046 322.31017205 935.1802117 324.11214943 936.99583435 325.91377258 C942.44320074 331.32271722 947.88196383 336.74025066 953.31904674 342.15952939 C955.88299519 344.71470003 958.44791791 347.26889229 961.01271057 349.82321548 C969.54388005 358.32036839 978.07253277 366.82003552 986.59395599 375.32696342 C988.80342246 377.53261044 991.01289955 379.73824681 993.22241211 381.94384766 C993.77153678 382.49200485 994.32066146 383.04016204 994.88642627 383.60493006 C1003.77669238 392.47860557 1012.68385845 401.33511134 1021.59825975 410.18453394 C1030.76092423 419.28095538 1039.90836395 428.39246472 1049.0411582 437.51887715 C1054.16495594 442.63835415 1059.29507535 447.75111602 1064.442276 452.8470726 C1069.28693855 457.64361228 1074.11062068 462.46041532 1078.92100716 467.29132652 C1080.68572282 469.05703157 1082.45725139 470.81595888 1084.23615837 472.56736565 C1101.42828533 489.50856871 1101.42828533 489.50856871 1104.0793457 501.39111328 C1104.27102577 502.12551573 1104.46270584 502.85991817 1104.6601944 503.61657524 C1107.80770243 516.94200847 1104.70921654 531.69517946 1097.8293457 543.20361328 C1090.39999528 554.02564805 1080.04595446 562.61142392 1067.0949707 565.95361328 C1054.09317137 567.83988469 1039.3374692 567.87075253 1028.39067173 559.78133392 C1023.95862302 556.40863565 1020.0558132 552.63818941 1016.14109802 548.68664551 C1015.3837444 547.93029517 1014.62639077 547.17394483 1013.84608704 546.39467478 C1011.32588588 543.87542131 1008.81288163 541.34911263 1006.29980469 538.82275391 C1004.48778318 537.00852971 1002.67531216 535.19475437 1000.86242676 533.38139343 C996.96742695 529.48346558 993.07547155 525.58253778 989.18621635 521.67887878 C983.55599747 516.02790876 977.91972239 510.38301019 972.28189302 504.7396341 C963.12414853 495.57264705 953.97051109 486.40157088 944.81982422 477.22753906 C943.9994689 476.40509377 943.9994689 476.40509377 943.16254074 475.56603342 C942.61496038 475.01705753 942.06738002 474.46808164 941.50320631 473.90247011 C933.73934309 466.11883756 925.97451087 458.3361734 918.20849609 450.5546875 C917.66196152 450.00706208 917.11542695 449.45943666 916.55233072 448.89521652 C907.43116321 439.75600994 898.30795262 430.6188446 889.18369919 421.48271894 C883.56259822 415.8540414 877.94358113 410.22329797 872.32727648 404.58983457 C868.02312175 400.27271578 863.71650961 395.95805726 859.40901947 391.64426613 C857.64530676 389.87708712 855.88246624 388.10903712 854.12056923 386.34004784 C851.71289912 383.92290079 849.30213422 381.50888183 846.89060974 379.09558105 C846.19663115 378.39732539 845.50265257 377.69906972 844.78764433 376.97965479 C839.25895108 371.45737204 833.82743786 366.37075737 827.0793457 362.39111328 C826.17958008 361.61123047 825.27981445 360.83134766 824.3527832 360.02783203 C817.00769431 353.84243499 807.23497343 350.02833214 798.0793457 347.39111328 C797.3471582 347.11396484 796.6149707 346.83681641 795.8605957 346.55126953 C782.90361442 342.1024326 765.86824983 342.72630809 753.0793457 347.39111328 C751.84700195 347.82810547 750.6146582 348.26509766 749.3449707 348.71533203 C742.70651581 351.1706397 736.60874001 353.91044419 730.91137695 358.19189453 C728.96614028 359.46521576 727.35041069 359.96308551 725.0793457 360.39111328 C725.0793457 361.05111328 725.0793457 361.71111328 725.0793457 362.39111328 C723.41913973 363.4018031 721.75082367 364.3991762 720.0793457 365.39111328 C718.09093891 367.08328599 716.1762677 368.78587903 714.27733612 370.57227421 C713.71600801 371.09588469 713.15467989 371.61949516 712.57634184 372.15897262 C705.18837403 379.10085422 698.05827622 386.30439967 690.91149902 393.49253845 C689.31347909 395.09586119 687.71521894 396.69894452 686.11674166 398.30181128 C682.66310663 401.76590393 679.21109457 405.23160282 675.76034737 408.69857216 C670.62884012 413.854149 665.49440836 419.00680506 660.35910659 424.1586015 C657.9026243 426.62297688 655.44624558 429.08745548 652.98989105 431.5519582 C652.24725649 432.2970546 652.24725649 432.2970546 651.48961922 433.05720345 C647.90490841 436.65391875 644.32074303 440.25117705 640.73682404 443.84868133 C626.28745997 458.35267597 611.83136006 472.84992789 597.37017573 487.34213703 C595.72549277 488.99035217 594.08082983 490.63858728 592.43617266 492.28682815 C586.87931073 497.85578659 581.32235827 503.42465469 575.76534748 508.99346459 C564.3326015 520.45050097 552.90007172 531.9077529 541.46850586 543.3659668 C540.60881576 544.22765033 540.60881576 544.22765033 539.73175818 545.10674162 C521.12963298 563.75217146 502.53927677 582.40928737 483.95439775 601.07190593 C464.82353655 620.28264452 445.67944088 639.48010147 426.51917361 658.66151329 C423.81297158 661.37072055 421.10692833 664.08008634 418.40098572 666.78955269 C417.86848749 667.32273681 417.33598925 667.85592092 416.78735471 668.40526213 C408.22774607 676.97670338 399.68228613 685.56211721 391.14217447 694.15297958 C382.56051531 702.78507736 373.96443932 711.40259976 365.35348284 720.00547396 C360.69129378 724.66410161 356.0362481 729.32947599 351.39834404 734.01230049 C347.15067746 738.30083093 342.88487169 742.57041437 338.60403532 746.82582755 C337.06084873 748.36633163 335.52438403 749.9136059 333.99552017 751.46832549 C325.68109142 759.91534836 318.88479274 766.4836045 307.0793457 769.39111328 C306.34205215 769.58570426 305.6047586 769.78029525 304.84512281 769.98078293 C291.49552926 773.08295445 276.7986161 770.03493498 265.2668457 763.14111328 C254.44481094 755.71176285 245.85903506 745.35772204 242.5168457 732.40673828 C240.63113676 719.40881594 240.5986508 704.65260942 248.6842289 693.70775604 C252.08131651 689.24371525 255.8841945 685.31294176 259.8621521 681.36779785 C261.00915303 680.21823364 261.00915303 680.21823364 262.1793257 679.04544592 C264.72640221 676.49509197 267.28052949 673.9519223 269.8347168 671.40869141 C271.66852055 669.57545214 273.50188334 667.74177168 275.33483887 665.90768433 C279.27335345 661.96812436 283.21549416 658.03222381 287.16016769 654.09883118 C292.86339702 648.41190118 298.56105279 642.71941361 304.25739188 637.02558297 C313.50093531 627.78640971 322.74893012 618.55170555 331.99975586 609.31982422 C340.98257642 600.35538005 349.96328031 591.38882404 358.94116211 582.41943359 C359.49516695 581.8659542 360.04917178 581.31247481 360.61996464 580.74222332 C363.39941254 577.96538562 366.17881905 575.1885065 368.95820498 572.41160679 C391.99217282 549.39835032 415.03337761 526.39235252 438.0793457 503.39111328 C436.42608394 499.1284085 433.23922074 496.27522476 430.05875874 493.12163734 C429.43216159 492.49243291 428.80556444 491.86322847 428.15997949 491.21495724 C426.04516647 489.09381475 423.92325648 486.97991582 421.80134583 484.86587524 C420.2738816 483.33682372 418.7468553 481.80733461 417.22023124 480.27744424 C413.01278231 476.06356251 408.79908968 471.85597233 404.5843786 467.64935589 C400.04417272 463.1157126 395.50971636 458.57632526 390.97454834 454.03764343 C383.11108849 446.16971768 375.24394978 438.30548642 367.37415504 430.44389725 C359.11489865 422.19325062 350.85749507 413.94075754 342.60263634 405.68571091 C342.08945503 405.17252196 341.57627373 404.65933301 341.04754148 404.13059288 C338.96443148 402.04744198 336.88133384 399.96427872 334.79825303 397.88109862 C315.24622811 378.32816711 295.68877857 358.78066989 276.12861007 339.23588532 C258.75074876 321.87164128 241.37657736 304.50371422 224.00585938 287.13232422 C222.89101891 286.01744334 221.77617841 284.90256248 220.66133789 283.78768165 C220.11018316 283.23650657 219.55902843 282.6853315 218.99117205 282.11745414 C216.21672703 279.34290833 213.44227691 276.56836763 210.66782093 273.79383278 C210.12046483 273.24645996 209.57310873 272.69908715 209.00916608 272.13512728 C194.49730626 257.62290217 179.98299412 243.11313023 165.46785086 228.60418928 C164.95139894 228.08795762 164.43494702 227.57172597 163.90284503 227.03985094 C161.8260529 224.96394704 159.74926068 222.88804323 157.67245551 220.81215237 C150.44870667 213.59156241 143.22578248 206.37014847 136.00339173 199.14820008 C126.69297835 189.83838412 117.38081041 180.53032925 108.06583641 171.22507621 C103.57369731 166.73755465 99.0823474 162.24925087 94.59314537 157.75879097 C90.48398873 153.6485388 86.37253104 149.54060312 82.25921723 145.43451135 C80.77108124 143.94818761 79.28378437 142.46102317 77.79741047 140.9729373 C75.77694638 138.95040384 73.75343419 136.93096885 71.72913837 134.9122715 C71.15288701 134.33396481 70.57663564 133.75565813 69.98292211 133.15982699 C64.72544969 127.92887897 59.48234429 123.16724065 53.0793457 119.39111328 C52.17958008 118.61123047 51.27981445 117.83134766 50.3527832 117.02783203 C43.00769431 110.84243499 33.23497343 107.02833214 24.0793457 104.39111328 C23.3471582 104.11396484 22.6149707 103.83681641 21.8605957 103.55126953 C8.90361442 99.1024326 -8.13175017 99.72630809 -20.9206543 104.39111328 C-22.15299805 104.82810547 -23.3853418 105.26509766 -24.6550293 105.71533203 C-31.29348419 108.1706397 -37.39125999 110.91044419 -43.08862305 115.19189453 C-45.03385972 116.46521576 -46.64958931 116.96308551 -48.9206543 117.39111328 C-48.9206543 118.05111328 -48.9206543 118.71111328 -48.9206543 119.39111328 C-50.58212649 120.39972021 -52.25014675 121.3975428 -53.9206543 122.39111328 C-55.95757652 124.13353384 -57.92349569 125.8866153 -59.87214661 127.72175694 C-60.71969929 128.51273316 -60.71969929 128.51273316 -61.58437425 129.31968871 C-68.09789848 135.43656203 -74.40114372 141.76138162 -80.69677734 148.10081482 C-82.03493305 149.44427678 -83.37333113 150.78749735 -84.71194744 152.13050038 C-87.59781435 155.02680307 -90.48205038 157.92471634 -93.36500168 160.8239212 C-98.05773532 165.54305295 -102.75415562 170.25850503 -107.45108032 174.97346497 C-112.51348629 180.05567807 -117.57558982 185.13819112 -122.63644409 190.22194946 C-135.1681525 202.81035331 -147.70748297 215.39112717 -160.25146484 227.96730042 C-161.16052775 228.87872785 -162.06959065 229.79015528 -163.00620091 230.72920173 C-167.65334052 235.38842744 -172.3005626 240.04757089 -176.94784355 244.70665562 C-186.50402551 254.28712629 -196.05999214 263.86781148 -205.61499023 273.44946289 C-206.09394188 273.92974349 -206.57289352 274.41002409 -207.06635885 274.90485865 C-222.61287315 290.49468058 -238.14760907 306.09618172 -253.6768773 321.70318098 C-270.12270795 338.23118006 -286.58347582 354.74416637 -303.05954075 371.24203736 C-312.91381225 381.1103804 -322.75578778 390.99066812 -332.58225846 400.88669569 C-339.31382993 407.66370231 -346.06000263 414.42594289 -352.81782031 421.17677712 C-356.71428377 425.07010258 -360.60396078 428.96962531 -364.47630692 432.88695145 C-368.02450175 436.47608297 -371.59085016 440.04609522 -375.17223608 443.60209895 C-376.46104945 444.88823518 -377.74317815 446.18111447 -379.0176338 447.48147946 C-389.20540587 457.86449816 -399.34421858 464.33687379 -414.36791992 464.68383789 C-430.46715717 464.81168477 -443.1307972 460.81910515 -455.1706543 449.70361328 C-466.42401496 437.75702711 -469.64205366 424.76566471 -469.2097168 408.90283203 C-468.95595612 403.7284599 -468.07265127 399.12068873 -465.9206543 394.39111328 C-465.66298221 393.81005711 -465.40531012 393.22900094 -465.13982979 392.630337 C-462.83624316 387.69841404 -460.20428498 384.1019794 -456.33389854 380.30657959 C-455.77849256 379.74595904 -455.22308658 379.18533849 -454.65085012 378.60772943 C-452.7948362 376.73916333 -450.92496247 374.88513774 -449.05477905 373.03076172 C-447.70466816 371.67747284 -446.35543357 370.32330926 -445.00699961 368.96834946 C-441.30458312 365.25311913 -437.58981254 361.55046159 -433.87288165 357.84976006 C-429.86414646 353.85419008 -425.86696136 349.84709423 -421.86831665 345.84143066 C-414.03447465 337.9975068 -406.1899943 330.16430567 -398.34186499 322.3346796 C-389.20071101 313.2143025 -380.07002935 304.08347131 -370.93974526 294.95221472 C-354.15287031 278.16430821 -337.35546733 261.38697767 -320.55310242 244.61457676 C-305.2255252 229.31423303 -289.90533553 214.00653297 -274.59204102 198.69189453 C-273.60918286 197.70895555 -272.62632466 196.72601663 -271.6434664 195.74307775 C-271.15755367 195.25712433 -270.67164095 194.7711709 -270.1710036 194.27049161 C-267.72480909 191.82409551 -265.27860437 189.37770962 -262.83238792 186.93133545 C-262.34975426 186.44866835 -261.86712059 185.96600126 -261.36986166 185.46870789 C-245.81510532 169.91306349 -230.25278464 154.36498986 -214.68985241 138.81752563 C-208.32505096 132.45875086 -201.96219834 126.09802998 -195.59995651 119.73669434 C-187.84203418 111.98013831 -180.08032868 104.22739016 -172.31392376 96.4793272 C-168.35280941 92.52742842 -164.39325913 88.5739971 -160.43801117 84.6162262 C-156.81388689 80.98990238 -153.18514571 77.36826505 -149.55273254 73.75024462 C-148.24274735 72.44386812 -146.9344148 71.13583176 -145.62795357 69.82593107 C-139.32909342 63.51233264 -133.06882827 57.41338567 -125.97046816 51.98269272 C-122.40223622 49.21213649 -119.19601902 46.05780322 -115.96166992 42.91064453 C-112.24003674 39.39111328 -112.24003674 39.39111328 -108.9206543 39.39111328 C-108.9206543 38.73111328 -108.9206543 38.07111328 -108.9206543 37.39111328 C-107.27508863 36.35675772 -105.60359349 35.36347815 -103.9206543 34.39111328 C-103.1369043 33.75173828 -102.3531543 33.11236328 -101.5456543 32.45361328 C-99.07527066 30.51259757 -96.55531954 28.97547873 -93.80737305 27.46142578 C-91.79493297 26.31979311 -89.86390467 25.08402068 -87.9206543 23.82861328 C-84.38904312 21.60098161 -80.78827798 19.97960158 -76.9206543 18.39111328 C-75.58315701 17.71174958 -74.24992981 17.02392663 -72.9206543 16.32861328 C-69.3483141 14.50809376 -65.77847462 13.49334766 -61.9206543 12.39111328 C-60.68909535 11.77964705 -59.46951191 11.1436847 -58.26049805 10.48876953 C-53.95392392 8.2994049 -49.6557234 7.00169276 -44.9831543 5.82861328 C-43.89164063 5.53567383 -43.89164063 5.53567383 -42.77807617 5.23681641 C-28.47690583 1.54425182 -14.74823168 -0.10664337 0 0 Z " fill="#FEFDFE" transform="translate(670.920654296875,707.60888671875)"/>
<path d="M0 0 C0.77956055 0.16628906 1.55912109 0.33257812 2.36230469 0.50390625 C32.6942963 7.22498769 59.51617911 21.66722796 82 43 C83.24231905 44.05081532 84.49140814 45.0937309 85.75 46.125 C115.09411905 71.16808978 131.9912077 113.97978392 135.8190918 151.46777344 C137.04905208 168.68389762 136.63213553 186.10484988 133 203 C132.83371094 203.77956055 132.66742187 204.55912109 132.49609375 205.36230469 C125.77501231 235.6942963 111.33277204 262.51617911 90 285 C88.94918468 286.24231905 87.9062691 287.49140814 86.875 288.75 C61.83191022 318.09411905 19.02021608 334.9912077 -18.46777344 338.8190918 C-35.68389762 340.04905208 -53.10484988 339.63213553 -70 336 C-70.77956055 335.83371094 -71.55912109 335.66742187 -72.36230469 335.49609375 C-102.6942963 328.77501231 -129.51617911 314.33277204 -152 293 C-153.24231905 291.94918468 -154.49140814 290.9062691 -155.75 289.875 C-185.09411905 264.83191022 -201.9912077 222.02021608 -205.8190918 184.53222656 C-207.04905208 167.31610238 -206.63213553 149.89515012 -203 133 C-202.83371094 132.22043945 -202.66742187 131.44087891 -202.49609375 130.63769531 C-195.77501231 100.3057037 -181.33277204 73.48382089 -160 51 C-158.94918468 49.75768095 -157.9062691 48.50859186 -156.875 47.25 C-131.83191022 17.90588095 -89.02021608 1.0087923 -51.53222656 -2.8190918 C-34.31610238 -4.04905208 -16.89515012 -3.63213553 0 0 Z " fill="#FEFDFE" transform="translate(1321,393)"/>
<path d="M0 0 C1.44738758 1.19647185 2.88470658 2.40521246 4.3125 3.625 C5.51132813 4.58986328 5.51132813 4.58986328 6.734375 5.57421875 C24.64290964 20.61850018 34.5997918 42.70641858 37.3125 65.625 C38.64615648 90.83623698 31.95325316 115.14656052 15.3125 134.625 C14.66925781 135.42421875 14.02601563 136.2234375 13.36328125 137.046875 C-1.32268621 154.52887694 -24.09811869 165.51122475 -46.6875 167.625 C-71.49110622 169.44291804 -95.40352585 162.62092326 -114.6875 146.625 C-115.59886719 145.88765625 -116.51023437 145.1503125 -117.44921875 144.390625 C-135.11406718 129.31267906 -146.59233172 106.74944993 -148.6875 83.625 C-149.31564517 72.28905721 -149.14388616 61.53552017 -145.6875 50.625 C-145.33558594 49.48804688 -144.98367188 48.35109375 -144.62109375 47.1796875 C-140.5980573 35.0973008 -134.96536885 24.31446333 -126.6875 14.625 C-126.04425781 13.82578125 -125.40101562 13.0265625 -124.73828125 12.203125 C-94.27501251 -24.05998972 -37.21624563 -28.20599669 0 0 Z " fill="#6200B2" transform="translate(1341.6875,486.375)"/>
</svg>
