<?xml version="1.0" encoding="UTF-8"?>
<svg version="1.1" xmlns="http://www.w3.org/2000/svg" width="1893" height="1898">
<path d="M0 0 C2.64410929 0.26431537 5.28904883 0.51899901 7.93414307 0.77325439 C75.78642266 7.38679159 142.6769365 21.25970191 207.53326416 42.25323486 C208.67187897 42.62128235 208.67187897 42.62128235 209.83349609 42.99676514 C273.05997014 63.49356128 334.78319671 90.6503826 391.90435791 124.69268799 C394.27209495 126.09820203 396.64883999 127.48565861 399.03326416 128.86260986 C423.45890352 142.98889971 447.54027909 158.3533472 469.93951416 175.52276611 C473.45011816 178.21163856 477.04249361 180.77096852 480.65826416 183.31573486 C490.75479562 190.4555783 500.35808731 198.22603017 509.90045166 206.08526611 C511.65055942 207.52637859 513.40576028 208.96132889 515.16607666 210.38995361 C525.64784663 218.90066189 535.9071692 227.65556218 545.83795166 236.80401611 C547.95021291 238.72341873 550.08227704 240.60571998 552.23712158 242.47637939 C556.2170088 245.95599783 560.11227867 249.51456298 563.96685791 253.13214111 C564.64985458 253.77309219 565.33285126 254.41404327 566.0365448 255.07441711 C573.30714989 261.93274554 580.39837867 268.96691647 587.45489502 276.04449463 C589.62244058 278.21747821 591.79538916 280.38495849 593.96881104 282.55206299 C595.37733543 283.96124715 596.78555016 285.37074092 598.19342041 286.78057861 C598.82893326 287.41406723 599.46444611 288.04755585 600.11921692 288.70024109 C603.89109396 292.49165685 607.47874992 296.39624628 610.96784973 300.44970703 C613.37524006 303.22328276 615.8959213 305.8876222 618.40826416 308.56573486 C622.9467494 313.43909036 627.22675214 318.45627464 631.39654541 323.65167236 C633.4920891 326.20310215 635.67289571 328.6365026 637.90826416 331.06573486 C641.89010003 335.44024312 645.55068499 339.99852561 649.17218018 344.66973877 C652.13361114 348.48624155 655.15254701 352.24514749 658.22540283 355.97247314 C693.07828274 398.30845594 722.88258218 445.85703462 748.53326416 494.25323486 C749.02778076 495.18587158 749.52229736 496.1185083 750.03179932 497.07940674 C753.08544859 502.85536229 756.10400231 508.64857514 759.09381104 514.45782471 C760.02147608 516.2593452 760.95223187 518.05927917 761.88677979 519.85723877 C794.60763648 582.9115415 817.99533466 651.28631645 834.53326416 720.25323486 C834.71911072 721.02759888 834.90495728 721.80196289 835.09643555 722.59979248 C845.24268857 765.08022256 852.1372405 808.18717364 856.28326416 851.65863037 C856.52348179 854.15170938 856.77515819 856.64338393 857.02935791 859.1350708 C862.36576328 912.44073262 862.11455053 968.42761841 856.78649902 1021.7199707 C856.52218365 1024.36407999 856.26750001 1027.00901953 856.01324463 1029.65411377 C849.39970743 1097.50639336 835.52679711 1164.3969072 814.53326416 1229.25323486 C814.28789917 1230.0123114 814.04253418 1230.77138794 813.78973389 1231.5534668 C793.29293775 1294.77994084 766.13611642 1356.50316741 732.09381104 1413.62432861 C730.68829699 1415.99206566 729.30084041 1418.3688107 727.92388916 1420.75323486 C713.79695042 1445.1799962 698.43311383 1469.26536454 681.25982666 1491.66339111 C678.58933085 1495.14971493 676.05557067 1498.72149841 673.53326416 1502.31573486 C668.60420048 1509.30289183 663.28071201 1515.9478974 657.88922119 1522.58135986 C656.02711838 1524.87730514 654.18663595 1527.19025082 652.34576416 1529.50323486 C641.9268691 1542.51080816 631.27604966 1555.29858813 619.98248291 1567.55792236 C618.0636882 1569.66951463 616.18206655 1571.80091803 614.31207275 1573.95513916 C610.82217557 1577.94684811 607.25177839 1581.85243901 603.62310791 1585.71807861 C602.66029152 1586.74396339 602.66029152 1586.74396339 601.67802429 1587.79057312 C594.96913382 1594.90331752 588.09327851 1601.84491398 581.16925049 1608.74761963 C579.06869312 1610.84273578 576.97364542 1612.94325796 574.87896729 1615.04425049 C573.51535605 1616.40720199 572.15143523 1617.76984384 570.78717041 1619.13214111 C570.17555557 1619.74578018 569.56394073 1620.35941925 568.93379211 1620.99165344 C565.20293656 1624.70263176 561.35441956 1628.22601149 557.36584473 1631.6587677 C554.40717948 1634.23300355 551.57300923 1636.93746872 548.72076416 1639.62823486 C543.67415472 1644.35519862 538.49992268 1648.8283263 533.09967041 1653.15167236 C530.55767053 1655.23324913 528.13797081 1657.40361866 525.72076416 1659.62823486 C521.3462559 1663.61007073 516.78797341 1667.27065569 512.11676025 1670.89215088 C508.30025748 1673.85358184 504.54135153 1676.87251771 500.81402588 1679.94537354 C432.96249104 1735.80380032 353.11915604 1780.23153362 136.53326416 1856.25323486 C135.76210266 1856.43801392 134.99094116 1856.62279297 134.19641113 1856.81317139 C91.7102206 1866.95493076 48.60430737 1873.85673605 5.12786865 1878.00323486 C2.63478964 1878.2434525 0.14311509 1878.49512889 -2.34857178 1878.74932861 C-55.6542336 1884.08573398 -111.64111939 1883.83452124 -164.93347168 1878.50646973 C-167.57758097 1878.24215436 -170.22252051 1877.98747071 -172.86761475 1877.73321533 C-240.71989434 1871.11967814 -307.61040818 1857.24676782 -372.46673584 1836.25323486 C-373.22581238 1836.00786987 -373.98488892 1835.76250488 -374.76696777 1835.50970459 C-437.99344182 1815.01290845 -499.71666839 1787.85608713 -556.83782959 1753.81378174 C-559.20556663 1752.4082677 -561.58231167 1751.02081112 -563.96673584 1749.64385986 C-588.39349718 1735.51692113 -612.47886552 1720.15308453 -634.87689209 1702.97979736 C-638.3632159 1700.30930155 -641.93499938 1697.77554138 -645.52923584 1695.25323486 C-652.51639281 1690.32417118 -659.16139838 1685.00068271 -665.79486084 1679.60919189 C-668.09080612 1677.74708908 -670.4037518 1675.90660666 -672.71673584 1674.06573486 C-685.72430914 1663.64683981 -698.51208911 1652.99602036 -710.77142334 1641.70245361 C-712.88301561 1639.7836589 -715.01441901 1637.90203725 -717.16864014 1636.03204346 C-721.16034908 1632.54214627 -725.06593999 1628.97174909 -728.93157959 1625.34307861 C-729.95746437 1624.38026222 -729.95746437 1624.38026222 -731.0040741 1623.397995 C-738.1168185 1616.68910453 -745.05841495 1609.81324921 -751.96112061 1602.88922119 C-754.05623676 1600.78866382 -756.15675894 1598.69361612 -758.25775146 1596.59893799 C-759.62070297 1595.23532676 -760.98334481 1593.87140594 -762.34564209 1592.50714111 C-762.95928116 1591.89552628 -763.57292023 1591.28391144 -764.20515442 1590.65376282 C-767.91613274 1586.92290726 -771.43951246 1583.07439026 -774.87226868 1579.08581543 C-777.44650452 1576.12715018 -780.1509697 1573.29297993 -782.84173584 1570.44073486 C-787.5686996 1565.39412542 -792.04182727 1560.21989338 -796.36517334 1554.81964111 C-798.44675011 1552.27764123 -800.61711964 1549.85794151 -802.84173584 1547.44073486 C-806.82357171 1543.0662266 -810.48415667 1538.50794412 -814.10565186 1533.83673096 C-817.06708282 1530.02022818 -820.08601869 1526.26132223 -823.15887451 1522.53399658 C-879.0173013 1454.68246174 -923.4450346 1374.83912674 -999.46673584 1158.25323486 C-999.65151489 1157.48207336 -999.83629395 1156.71091187 -1000.02667236 1155.91638184 C-1010.16843174 1113.4301913 -1017.07023703 1070.32427808 -1021.21673584 1026.84783936 C-1021.45695347 1024.35476035 -1021.70862987 1021.8630858 -1021.96282959 1019.37139893 C-1027.29923496 966.06573711 -1027.04802221 910.07885132 -1021.7199707 856.78649902 C-1021.45565533 854.14238973 -1021.20097169 851.49745019 -1020.94671631 848.85235596 C-1014.33317911 781.00007637 -1000.46026879 714.10956252 -979.46673584 649.25323486 C-979.22137085 648.49415833 -978.97600586 647.73508179 -978.72320557 646.95300293 C-958.22640943 583.72652889 -931.0695881 522.00330232 -897.02728271 464.88214111 C-895.62176867 462.51440407 -894.23431209 460.13765903 -892.85736084 457.75323486 C-878.73107099 433.32759551 -863.3666235 409.24621994 -846.19720459 386.84698486 C-843.50833215 383.33638087 -840.94900218 379.74400541 -838.40423584 376.12823486 C-831.2643924 366.0317034 -823.49394054 356.42841172 -815.63470459 346.88604736 C-814.19359211 345.1359396 -812.75864181 343.38073874 -811.33001709 341.62042236 C-802.81930882 331.13865239 -794.06440853 320.87932982 -784.91595459 310.94854736 C-782.99715987 308.83695509 -781.11553823 306.7055517 -779.24554443 304.55133057 C-775.75564725 300.55962162 -772.18525007 296.65403071 -768.55657959 292.78839111 C-767.914702 292.10446793 -767.2728244 291.42054474 -766.61149597 290.71589661 C-759.9026055 283.6031522 -753.02675019 276.66155575 -746.10272217 269.7588501 C-744.0021648 267.66373395 -741.9071171 265.56321176 -739.81243896 263.46221924 C-738.44882773 262.09926774 -737.08490691 260.73662589 -735.72064209 259.37432861 C-735.10902725 258.76068954 -734.49741241 258.14705048 -733.86726379 257.51481628 C-730.13640824 253.80383797 -726.28789124 250.28045824 -722.29931641 246.84770203 C-719.34065116 244.27346618 -716.50648091 241.56900101 -713.65423584 238.87823486 C-708.60762639 234.15127111 -703.43339436 229.67814343 -698.03314209 225.35479736 C-695.49114221 223.2732206 -693.07144249 221.10285106 -690.65423584 218.87823486 C-686.27972758 214.896399 -681.72144509 211.23581403 -677.05023193 207.61431885 C-673.23372916 204.65288788 -669.47482321 201.63395201 -665.74749756 198.56109619 C-623.41151477 163.70821629 -575.86293609 133.90391684 -527.46673584 108.25323486 C-526.53409912 107.75871826 -525.6014624 107.26420166 -524.64056396 106.75469971 C-518.86460841 103.70105043 -513.07139557 100.68249672 -507.262146 97.69268799 C-505.46062551 96.76502294 -503.66069153 95.83426715 -501.86273193 94.89971924 C-438.8437761 62.19720516 -370.41252668 38.72545505 -301.46673584 22.25323486 C-300.69557434 22.06845581 -299.92441284 21.88367676 -299.12988281 21.69329834 C-256.64369228 11.55153897 -213.53777905 4.64973367 -170.06134033 0.50323486 C-167.56826132 0.26301723 -165.07658677 0.01134084 -162.5848999 -0.24285889 C-109.27923808 -5.57926426 -53.29235229 -5.32805151 0 0 Z " fill="#FEFEFE" transform="translate(1029.4667358398438,8.74676513671875)"/>
<path d="M0 0 C2.64410929 0.26431537 5.28904883 0.51899901 7.93414307 0.77325439 C75.78642266 7.38679159 142.6769365 21.25970191 207.53326416 42.25323486 C208.67187897 42.62128235 208.67187897 42.62128235 209.83349609 42.99676514 C273.05997014 63.49356128 334.78319671 90.6503826 391.90435791 124.69268799 C394.27209495 126.09820203 396.64883999 127.48565861 399.03326416 128.86260986 C423.45890352 142.98889971 447.54027909 158.3533472 469.93951416 175.52276611 C473.45011816 178.21163856 477.04249361 180.77096852 480.65826416 183.31573486 C490.75479562 190.4555783 500.35808731 198.22603017 509.90045166 206.08526611 C511.65055942 207.52637859 513.40576028 208.96132889 515.16607666 210.38995361 C525.64784663 218.90066189 535.9071692 227.65556218 545.83795166 236.80401611 C547.95021291 238.72341873 550.08227704 240.60571998 552.23712158 242.47637939 C556.2170088 245.95599783 560.11227867 249.51456298 563.96685791 253.13214111 C564.64985458 253.77309219 565.33285126 254.41404327 566.0365448 255.07441711 C573.30714989 261.93274554 580.39837867 268.96691647 587.45489502 276.04449463 C589.62244058 278.21747821 591.79538916 280.38495849 593.96881104 282.55206299 C595.37733543 283.96124715 596.78555016 285.37074092 598.19342041 286.78057861 C598.82893326 287.41406723 599.46444611 288.04755585 600.11921692 288.70024109 C603.89109396 292.49165685 607.47874992 296.39624628 610.96784973 300.44970703 C613.37524006 303.22328276 615.8959213 305.8876222 618.40826416 308.56573486 C622.9467494 313.43909036 627.22675214 318.45627464 631.39654541 323.65167236 C633.4920891 326.20310215 635.67289571 328.6365026 637.90826416 331.06573486 C641.89010003 335.44024312 645.55068499 339.99852561 649.17218018 344.66973877 C652.13361114 348.48624155 655.15254701 352.24514749 658.22540283 355.97247314 C693.07828274 398.30845594 722.88258218 445.85703462 748.53326416 494.25323486 C749.02778076 495.18587158 749.52229736 496.1185083 750.03179932 497.07940674 C753.08544859 502.85536229 756.10400231 508.64857514 759.09381104 514.45782471 C760.02147608 516.2593452 760.95223187 518.05927917 761.88677979 519.85723877 C773.56345716 542.35862854 783.7004135 565.66567121 792.97076416 589.25323486 C793.43740479 590.43997803 793.90404541 591.62672119 794.38482666 592.84942627 C797.53326416 600.98087158 797.53326416 600.98087158 797.53326416 603.25323486 C759.54468227 603.45917717 721.55618437 603.61779229 683.56715732 603.71282283 C679.08352796 603.72407936 674.59989969 603.73572825 670.11627197 603.74761963 C669.22365202 603.74998042 668.33103206 603.75234122 667.41136302 603.75477355 C652.95285915 603.79394923 638.49467692 603.86491767 624.03636394 603.94761003 C609.20381227 604.03173607 594.37142919 604.08175579 579.53864872 604.10003132 C570.38377825 604.11238859 561.22981682 604.15143308 552.07522614 604.22448307 C545.79988444 604.27201086 539.52501352 604.28644659 533.24950485 604.27474726 C529.62696118 604.26897471 526.00600704 604.27789793 522.38374519 604.32608414 C518.45723556 604.37793658 514.53280254 604.36015344 510.60598755 604.33552551 C508.88711281 604.37484887 508.88711281 604.37484887 507.13351333 604.41496664 C499.59733428 604.28677828 499.59733428 604.28677828 496.5511744 601.32800853 C494.99512188 599.02952882 493.74884476 596.74557148 492.53326416 594.25323486 C491.66596439 592.81567994 490.78757323 591.38468849 489.89263916 589.96417236 C489.02204683 588.51934201 488.15227556 587.07401664 487.28326416 585.62823486 C464.29735105 547.75732636 436.74119911 512.37070509 406.34625244 480.17950439 C404.48275044 478.19956489 402.62961128 476.21040072 400.77935791 474.21807861 C400.16238037 473.55413086 399.54540283 472.89018311 398.909729 472.20611572 C397.7439731 470.95108457 396.57887797 469.69543915 395.41461182 468.43902588 C390.34215874 462.98990549 385.22631817 457.56288394 379.53326416 452.75323486 C376.92678807 450.50765547 374.44391895 448.20771974 372.03326416 445.75323486 C368.3702979 442.04110127 364.49091815 438.64642605 360.53326416 435.25323486 C359.48995036 434.34607947 358.44701037 433.43849405 357.40435791 432.53057861 C349.91750408 426.03358094 342.27422287 419.79551495 334.4331665 413.73223877 C332.43071516 412.17340425 330.44413016 410.59583347 328.45904541 409.01495361 C312.7071107 396.52438539 296.22089989 385.13653492 279.28326416 374.31573486 C278.34837158 373.71825439 277.413479 373.12077393 276.45025635 372.50518799 C271.69856143 369.45651645 271.69856143 369.45651645 266.53326416 367.25323486 C266.53326416 366.59323486 266.53326416 365.93323486 266.53326416 365.25323486 C265.45045166 364.82010986 265.45045166 364.82010986 264.34576416 364.37823486 C261.74159749 363.3365682 259.13743083 362.29490153 256.53326416 361.25323486 C256.53326416 360.59323486 256.53326416 359.93323486 256.53326416 359.25323486 C255.82218506 358.9840625 255.11110596 358.71489014 254.378479 358.43756104 C251.46563623 357.22508461 248.77369638 355.82477762 246.00982666 354.30401611 C244.37714844 353.41347534 244.37714844 353.41347534 242.71148682 352.50494385 C242.13360413 352.18919403 241.55572144 351.87344421 240.96032715 351.54812622 C229.82777983 345.47923832 218.5752193 339.70557987 207.15826416 334.19073486 C206.52575745 333.88398834 205.89325073 333.57724182 205.24157715 333.26119995 C189.97945997 325.8727365 174.44537349 319.23730158 158.41607666 313.69464111 C155.18470697 312.53689884 152.03966043 311.20898709 148.88092041 309.86651611 C142.62585216 307.24143031 136.28558074 305.00408263 129.84576416 302.87823486 C128.6686084 302.48958252 127.49145264 302.10093018 126.27862549 301.70050049 C74.05902445 284.65434328 19.34828907 273.9493236 -35.46673584 270.25323486 C-37.29736572 270.12295898 -37.29736572 270.12295898 -39.16497803 269.99005127 C-53.12967619 269.06319856 -67.10083978 269.00992311 -81.09173584 269.00323486 C-82.3681897 269.00256012 -83.64464355 269.00188538 -84.95977783 269.00119019 C-107.25583656 269.0197998 -129.30127765 269.83788395 -151.46673584 272.25323486 C-152.25038513 272.33809143 -153.03403442 272.422948 -153.84143066 272.51037598 C-200.73209666 277.65017437 -246.66273608 287.48571619 -291.46673584 302.25323486 C-292.62624756 302.63028564 -293.78575928 303.00733643 -294.98040771 303.39581299 C-332.63664544 315.69809961 -369.52475018 331.3893554 -404.03070068 350.88458252 C-406.36979276 352.19876875 -408.72120446 353.48656729 -411.08001709 354.76495361 C-458.41653611 380.49951022 -502.40486586 413.48839444 -541.54046631 450.44024658 C-543.52040582 452.30374858 -545.50956998 454.15688775 -547.50189209 456.00714111 C-548.16583984 456.62411865 -548.8297876 457.24109619 -549.51385498 457.87677002 C-550.76888613 459.04252592 -552.02453155 460.20762105 -553.28094482 461.37188721 C-558.73006521 466.44434028 -564.15708676 471.56018085 -568.96673584 477.25323486 C-571.21231524 479.85971095 -573.51225096 482.34258007 -575.96673584 484.75323486 C-579.67886943 488.41620112 -583.07354466 492.29558087 -586.46673584 496.25323486 C-587.37389123 497.29654867 -588.28147665 498.33948865 -589.18939209 499.38214111 C-595.68638976 506.86899494 -601.92445575 514.51227616 -607.98773193 522.35333252 C-609.54656646 524.35578387 -611.12413723 526.34236887 -612.70501709 528.32745361 C-659.31779089 587.11111791 -694.64589054 655.23182572 -718.46673584 726.25323486 C-718.83572998 727.34684326 -719.20472412 728.44045166 -719.5848999 729.56719971 C-743.96875794 802.66506488 -751.68146133 876.48643095 -753.46673584 953.25323486 C-842.89673584 953.25323486 -932.32673584 953.25323486 -1024.46673584 953.25323486 C-1024.46673584 848.96573235 -1011.59973536 748.52325054 -979.46673584 649.25323486 C-979.22137085 648.49415833 -978.97600586 647.73508179 -978.72320557 646.95300293 C-958.22640943 583.72652889 -931.0695881 522.00330232 -897.02728271 464.88214111 C-895.62176867 462.51440407 -894.23431209 460.13765903 -892.85736084 457.75323486 C-878.73107099 433.32759551 -863.3666235 409.24621994 -846.19720459 386.84698486 C-843.50833215 383.33638087 -840.94900218 379.74400541 -838.40423584 376.12823486 C-831.2643924 366.0317034 -823.49394054 356.42841172 -815.63470459 346.88604736 C-814.19359211 345.1359396 -812.75864181 343.38073874 -811.33001709 341.62042236 C-802.81930882 331.13865239 -794.06440853 320.87932982 -784.91595459 310.94854736 C-782.99715987 308.83695509 -781.11553823 306.7055517 -779.24554443 304.55133057 C-775.75564725 300.55962162 -772.18525007 296.65403071 -768.55657959 292.78839111 C-767.914702 292.10446793 -767.2728244 291.42054474 -766.61149597 290.71589661 C-759.9026055 283.6031522 -753.02675019 276.66155575 -746.10272217 269.7588501 C-744.0021648 267.66373395 -741.9071171 265.56321176 -739.81243896 263.46221924 C-738.44882773 262.09926774 -737.08490691 260.73662589 -735.72064209 259.37432861 C-735.10902725 258.76068954 -734.49741241 258.14705048 -733.86726379 257.51481628 C-730.13640824 253.80383797 -726.28789124 250.28045824 -722.29931641 246.84770203 C-719.34065116 244.27346618 -716.50648091 241.56900101 -713.65423584 238.87823486 C-708.60762639 234.15127111 -703.43339436 229.67814343 -698.03314209 225.35479736 C-695.49114221 223.2732206 -693.07144249 221.10285106 -690.65423584 218.87823486 C-686.27972758 214.896399 -681.72144509 211.23581403 -677.05023193 207.61431885 C-673.23372916 204.65288788 -669.47482321 201.63395201 -665.74749756 198.56109619 C-623.41151477 163.70821629 -575.86293609 133.90391684 -527.46673584 108.25323486 C-526.53409912 107.75871826 -525.6014624 107.26420166 -524.64056396 106.75469971 C-518.86460841 103.70105043 -513.07139557 100.68249672 -507.262146 97.69268799 C-505.46062551 96.76502294 -503.66069153 95.83426715 -501.86273193 94.89971924 C-438.8437761 62.19720516 -370.41252668 38.72545505 -301.46673584 22.25323486 C-300.69557434 22.06845581 -299.92441284 21.88367676 -299.12988281 21.69329834 C-256.64369228 11.55153897 -213.53777905 4.64973367 -170.06134033 0.50323486 C-167.56826132 0.26301723 -165.07658677 0.01134084 -162.5848999 -0.24285889 C-109.27923808 -5.57926426 -53.29235229 -5.32805151 0 0 Z " fill="#6100B1" transform="translate(1029.4667358398438,8.74676513671875)"/>
<path d="M0 0 C89.43 0 178.86 0 271 0 C271 103.13742627 257.77830518 202.82575855 226 301 C225.75463501 301.75907654 225.50927002 302.51815308 225.25646973 303.30023193 C204.75967359 366.52670598 177.60285226 428.24993255 143.56054688 485.37109375 C142.15503283 487.73883079 140.76757625 490.11557583 139.390625 492.5 C125.26368626 516.92676134 109.89984967 541.01212968 92.7265625 563.41015625 C90.05606669 566.89648007 87.52230651 570.46826354 85 574.0625 C80.07093632 581.04965697 74.74744785 587.69466254 69.35595703 594.328125 C67.49385422 596.62407028 65.65337179 598.93701596 63.8125 601.25 C53.39360494 614.2575733 42.7427855 627.04535327 31.44921875 639.3046875 C29.53042403 641.41627977 27.64880239 643.54768317 25.77880859 645.7019043 C22.28891141 649.69361325 18.71851423 653.59920415 15.08984375 657.46484375 C14.12702736 658.49072853 14.12702736 658.49072853 13.14476013 659.53733826 C6.43586966 666.65008266 -0.43998565 673.59167911 -7.36401367 680.49438477 C-9.46457104 682.58950092 -11.55961874 684.6900231 -13.65429688 686.79101562 C-15.01790811 688.15396713 -16.38182893 689.51660897 -17.74609375 690.87890625 C-18.35770859 691.49254532 -18.96932343 692.10618439 -19.59947205 692.73841858 C-23.3303276 696.4493969 -27.1788446 699.97277662 -31.16741943 703.40553284 C-34.12608468 705.97976868 -36.96025493 708.68423386 -39.8125 711.375 C-44.85910944 716.10196376 -50.03334148 720.57509143 -55.43359375 724.8984375 C-57.97559363 726.98001427 -60.39529335 729.1503838 -62.8125 731.375 C-67.18700826 735.35683587 -71.74529075 739.01742083 -76.41650391 742.63891602 C-80.23300668 745.60034698 -83.99191263 748.61928285 -87.71923828 751.69213867 C-155.57077312 807.55056546 -235.41410812 851.97829876 -452 928 C-453.15674225 928.27716858 -453.15674225 928.27716858 -454.33685303 928.55993652 C-496.82304356 938.7016959 -539.92895679 945.60350119 -583.40539551 949.75 C-585.89847452 949.99021763 -588.39014907 950.24189403 -590.88183594 950.49609375 C-644.18749776 955.83249912 -700.17438355 955.58128637 -753.46673584 950.25323486 C-756.11084513 949.98891949 -758.75578467 949.73423585 -761.40087891 949.47998047 C-829.2531585 942.86644327 -896.14367234 928.99353295 -961 908 C-961.75907654 907.75463501 -962.51815308 907.50927002 -963.30023193 907.25646973 C-1026.52670598 886.75967359 -1088.24993255 859.60285226 -1145.37109375 825.56054688 C-1147.73883079 824.15503283 -1150.11557583 822.76757625 -1152.5 821.390625 C-1176.92676134 807.26368626 -1201.01212968 791.89984967 -1223.41015625 774.7265625 C-1226.89648007 772.05606669 -1230.46826354 769.52230651 -1234.0625 767 C-1241.04965697 762.07093632 -1247.69466254 756.74744785 -1254.328125 751.35595703 C-1256.62407028 749.49385422 -1258.93701596 747.65337179 -1261.25 745.8125 C-1274.2575733 735.39360494 -1287.04535327 724.7427855 -1299.3046875 713.44921875 C-1301.41627977 711.53042403 -1303.54768317 709.64880239 -1305.7019043 707.77880859 C-1309.69361325 704.28891141 -1313.59920415 700.71851423 -1317.46484375 697.08984375 C-1318.14876694 696.44796616 -1318.83269012 695.80608856 -1319.53733826 695.14476013 C-1326.65008266 688.43586966 -1333.59167911 681.56001435 -1340.49438477 674.63598633 C-1342.58950092 672.53542896 -1344.6900231 670.44038126 -1346.79101562 668.34570312 C-1348.15396713 666.98209189 -1349.51660897 665.61817107 -1350.87890625 664.25390625 C-1351.79936485 663.33648399 -1351.79936485 663.33648399 -1352.73841858 662.40052795 C-1356.4493969 658.6696724 -1359.97277662 654.8211554 -1363.40553284 650.83258057 C-1365.97976868 647.87391532 -1368.68423386 645.03974507 -1371.375 642.1875 C-1376.10196376 637.14089056 -1380.57509143 631.96665852 -1384.8984375 626.56640625 C-1386.98001427 624.02440637 -1389.1503838 621.60470665 -1391.375 619.1875 C-1395.35683587 614.81299174 -1399.01742083 610.25470925 -1402.63891602 605.58349609 C-1405.60034698 601.76699332 -1408.61928285 598.00808737 -1411.69213867 594.28076172 C-1467.4493129 526.55221891 -1511.62220651 446.95771144 -1550 350 C-1511.95237117 349.63365826 -1473.9050083 349.35178688 -1435.85597221 349.18295473 C-1431.36247468 349.16294378 -1426.86898063 349.14223459 -1422.37548828 349.12109375 C-1421.03364629 349.1147983 -1421.03364629 349.1147983 -1419.66469638 349.10837567 C-1405.18589225 349.0387816 -1390.70810608 348.91264619 -1376.22990556 348.76555526 C-1361.37025775 348.61584984 -1346.51114246 348.52704347 -1331.6507715 348.49458408 C-1322.4827708 348.47264436 -1313.31764714 348.40340479 -1304.15053241 348.27333653 C-1297.86139536 348.18865653 -1291.57374194 348.16321877 -1285.28407641 348.18397796 C-1281.65563878 348.19421552 -1278.03221909 348.17871991 -1274.40467834 348.0927124 C-1253.22371576 347.61488896 -1253.22371576 347.61488896 -1247.88483572 351.56493378 C-1244.50584594 355.28510214 -1242.49946192 359.38565123 -1240.76474357 364.06547546 C-1239.66258159 366.85354649 -1238.07572316 369.25516286 -1236.41796875 371.7421875 C-1235.88518311 372.59119629 -1235.35239746 373.44020508 -1234.8034668 374.31494141 C-1227.93772337 385.19183906 -1220.67829192 395.68352573 -1213 406 C-1212.19117871 407.09618631 -1211.38256657 408.192527 -1210.57421875 409.2890625 C-1194.80851353 430.51535833 -1177.96386891 450.85018494 -1159.81298828 470.07373047 C-1157.94948628 472.05366998 -1156.09634712 474.04283414 -1154.24609375 476.03515625 C-1153.62911621 476.699104 -1153.01213867 477.36305176 -1152.37646484 478.04711914 C-1151.21070894 479.30215029 -1150.04561381 480.55779571 -1148.88134766 481.81420898 C-1143.80889458 487.26332937 -1138.69305401 492.69035092 -1133 497.5 C-1130.39352391 499.7455794 -1127.91065479 502.04551512 -1125.5 504.5 C-1121.83703374 508.21213359 -1117.95765399 511.60680882 -1114 515 C-1112.9566862 515.90715539 -1111.91374621 516.81474081 -1110.87109375 517.72265625 C-1103.38423992 524.21965392 -1095.74095871 530.45771991 -1087.89990234 536.52099609 C-1085.897451 538.07983062 -1083.910866 539.65740139 -1081.92578125 541.23828125 C-1023.14211695 587.85105505 -955.02140915 623.1791547 -884 647 C-882.9063916 647.36899414 -881.8127832 647.73798828 -880.68603516 648.11816406 C-828.27124835 665.60259699 -773.14406835 676.43741205 -718 680 C-716.18568481 680.12918823 -716.18568481 680.12918823 -714.3347168 680.26098633 C-700.33678964 681.1964109 -686.33656759 681.2008764 -672.3125 681.1875 C-671.0438913 681.18656342 -669.77528259 681.18562683 -668.4682312 681.18466187 C-649.56240775 681.15441922 -630.82186342 680.92920047 -612 679 C-611.23246399 678.92223328 -610.46492798 678.84446655 -609.6741333 678.76434326 C-526.88642234 670.32251687 -447.05218751 647.90880861 -349.46826172 599.38476562 C-347.11540168 598.06474365 -344.7507679 596.76987614 -342.37890625 595.484375 C-295.02906076 569.74132186 -251.0762943 536.77845987 -211.92626953 499.81298828 C-209.94633002 497.94948628 -207.95716586 496.09634712 -205.96484375 494.24609375 C-205.300896 493.62911621 -204.63694824 493.01213867 -203.95288086 492.37646484 C-202.69784971 491.21070894 -201.44220429 490.04561381 -200.18579102 488.88134766 C-194.73667063 483.80889458 -189.30964908 478.69305401 -184.5 473 C-182.2544206 470.39352391 -179.95448488 467.91065479 -177.5 465.5 C-173.78786641 461.83703374 -170.39319118 457.95765399 -167 454 C-166.09284461 452.9566862 -165.18525919 451.91374621 -164.27734375 450.87109375 C-157.78034608 443.38423992 -151.54228009 435.74095871 -145.47900391 427.89990234 C-143.92016938 425.897451 -142.34259861 423.910866 -140.76171875 421.92578125 C-128.27115052 406.17384654 -116.88330005 389.68763573 -106.0625 372.75 C-105.46501953 371.81510742 -104.86753906 370.88021484 -104.25195312 369.91699219 C-101.20328159 365.16529727 -101.20328159 365.16529727 -99 360 C-98.34 360 -97.68 360 -97 360 C-96.71125 359.278125 -96.4225 358.55625 -96.125 357.8125 C-95.08333333 355.20833333 -94.04166667 352.60416667 -93 350 C-92.34 350 -91.68 350 -91 350 C-90.73082764 349.2889209 -90.46165527 348.5778418 -90.18432617 347.84521484 C-88.97184974 344.93237207 -87.57154276 342.24043222 -86.05078125 339.4765625 C-85.4570874 338.38811035 -84.86339355 337.2996582 -84.25170898 336.17822266 C-83.93595917 335.60033997 -83.62020935 335.02245728 -83.29489136 334.42706299 C-77.22600345 323.29451567 -71.452345 312.04195514 -65.9375 300.625 C-65.63075348 299.99249329 -65.32400696 299.35998657 -65.00796509 298.70831299 C-57.61950163 283.44619581 -50.98406672 267.91210933 -45.44140625 251.8828125 C-44.28366398 248.65144281 -42.95575223 245.50639627 -41.61328125 242.34765625 C-38.98819545 236.092588 -36.75084777 229.75231658 -34.625 223.3125 C-34.23634766 222.13534424 -33.84769531 220.95818848 -33.44726562 219.74536133 C-9.97783526 147.84855341 -1.88630853 75.45234116 0 0 Z " fill="#6100B1" transform="translate(1618,937)"/>
<path d="M0 0 C1.23492188 0.26683594 2.46984375 0.53367187 3.7421875 0.80859375 C13.66196934 3.12870904 22.10818488 7.13658636 31 12 C32.05058594 12.556875 33.10117188 13.11375 34.18359375 13.6875 C63.12912583 29.67865716 83.46437577 56.47754168 93.18359375 87.81640625 C94.2228111 91.52789679 95.1465884 95.24170662 96 99 C96.226875 99.97453125 96.45375 100.9490625 96.6875 101.953125 C102.9974416 134.72976606 94.77287161 167.35909528 76.76708984 194.88476562 C56.21202224 224.84902559 26.24960796 243.52541135 -9.1875 250.375 C-25.09486287 252.3685584 -41.45127343 251.878786 -57 248 C-58.23492188 247.73316406 -59.46984375 247.46632813 -60.7421875 247.19140625 C-70.66196934 244.87129096 -79.10818488 240.86341364 -88 236 C-89.05058594 235.443125 -90.10117188 234.88625 -91.18359375 234.3125 C-103.00924974 227.77933547 -118.60973134 217.54907191 -125.36317447 205.58508307 C-128.19483359 201.0502896 -130.35712263 198.41853129 -135.65394491 197.06913911 C-140.39008313 196.58311555 -145.12838093 196.68320186 -149.88237762 196.75390434 C-151.73700044 196.74479678 -153.59160598 196.73130276 -155.44616878 196.71382308 C-160.5588982 196.67840274 -165.66970296 196.70544959 -170.78235167 196.74239886 C-176.33790754 196.77155702 -181.89320705 196.74276109 -187.44875574 196.7212249 C-197.19064666 196.69148471 -206.93196265 196.69894523 -216.67383957 196.73056984 C-231.1595499 196.77742657 -245.64491816 196.76712813 -260.13064925 196.74494619 C-284.49645145 196.70836207 -308.86203825 196.72012715 -333.22782898 196.75750351 C-357.35857014 196.79437761 -381.48918083 196.8105773 -405.61994934 196.79904556 C-406.3692911 196.79869687 -407.11863286 196.79834819 -407.89068195 196.79798893 C-414.73474121 196.79479322 -421.57880032 196.79134262 -428.4228593 196.7875862 C-445.43660153 196.77825118 -462.45034412 196.77211302 -479.46408844 196.76814461 C-480.2388661 196.76796133 -481.01364375 196.76777805 -481.81189952 196.76758921 C-519.50254769 196.7589523 -557.19315638 196.78714765 -594.88378906 196.81835938 C-607.96366348 196.82917038 -621.043538 196.83981856 -634.12341309 196.84979248 C-634.93462562 196.85041123 -635.74583815 196.85102997 -636.58163288 196.85166747 C-674.29124956 196.88020692 -712.00085468 196.88258532 -749.71048024 196.87821313 C-752.15854802 196.87792976 -754.60661581 196.87765767 -757.05468359 196.87738789 C-773.27812541 196.87558198 -789.50156715 196.87332511 -805.72500887 196.87076628 C-838.0057679 196.86567879 -870.28652697 196.86324101 -902.5672864 196.86262352 C-904.10458831 196.8625941 -905.64189022 196.86256282 -907.17919213 196.86252968 C-986.59405718 196.86083544 -1066.00888983 196.90125398 -1214 197 C-1214.95157234 193.71438029 -1215.8982867 190.42737868 -1216.84423828 187.14013672 C-1217.10952835 186.22435349 -1217.37481842 185.30857025 -1217.64814758 184.36503601 C-1219.91247646 176.48209831 -1221.90118128 168.5484681 -1223.67724609 160.54150391 C-1223.87276062 159.66020813 -1224.06827515 158.77891235 -1224.26971436 157.87091064 C-1224.56933075 156.51168488 -1224.56933075 156.51168488 -1224.875 155.125 C-1225.0852179 154.17743835 -1225.29543579 153.22987671 -1225.51202393 152.25360107 C-1242 77.55420595 -1242 77.55420595 -1242 50 C-1240.55584393 50.00173944 -1240.55584393 50.00173944 -1239.08251299 50.00351401 C-1206.11775568 50.04311975 -1173.15299529 50.07983514 -1140.18823242 50.11450195 C-1139.52413898 50.11520059 -1138.86004553 50.11589923 -1138.17582804 50.11661904 C-1067.01983984 50.19139642 -995.86386686 50.24715991 -924.70783997 50.26445007 C-923.12733514 50.26483895 -921.54683031 50.26522785 -919.96632548 50.26561675 C-886.79136257 50.27372199 -853.61639966 50.27915198 -820.44143585 50.2814914 C-803.77663759 50.28266943 -787.11183941 50.28436154 -770.44704125 50.28653973 C-767.93321399 50.28686532 -765.41938672 50.28717622 -762.90555946 50.28748652 C-724.1945846 50.29239425 -685.48365286 50.30832971 -646.77270508 50.35620117 C-645.52415563 50.35774486 -645.52415563 50.35774486 -644.25038297 50.35931973 C-630.83011061 50.37597932 -617.40983946 50.39356413 -603.98956845 50.41127174 C-565.33663427 50.4622589 -526.68374704 50.5064084 -488.03077412 50.50527477 C-486.83855401 50.50524481 -486.83855401 50.50524481 -485.62224866 50.50521423 C-468.17445138 50.50465279 -450.72665676 50.50057256 -433.27886109 50.49316026 C-426.25852729 50.49023983 -419.23819332 50.48782598 -412.21785927 50.48558617 C-411.44951282 50.48532881 -410.68116636 50.48507145 -409.88953668 50.48480629 C-385.1304351 50.47676522 -360.37159941 50.5099661 -335.61256355 50.56478614 C-310.67309559 50.61981697 -285.73395808 50.63442641 -260.79445371 50.59281354 C-257.34836578 50.58707371 -253.90227728 50.58179761 -250.4561882 50.5768013 C-249.44288775 50.57530701 -249.44288775 50.57530701 -248.40911658 50.57378254 C-237.06008466 50.55832116 -225.71181595 50.59443119 -214.36287913 50.64420614 C-204.49419891 50.68393677 -194.62628198 50.67673351 -184.75762944 50.63099403 C-179.12952433 50.60626353 -173.50348 50.60229374 -167.8755255 50.6554362 C-162.75518468 50.70338421 -157.63859947 50.69154742 -152.51841268 50.63195908 C-150.6776672 50.62102188 -148.83663049 50.63188773 -146.99619118 50.66719644 C-136.45415034 51.04345041 -136.45415034 51.04345041 -127.55496488 46.16074988 C-124.68196762 42.99767113 -122.37059146 39.5482803 -120 36 C-103.96903563 17.69309404 -81.33619502 5.89977028 -58 0 C-56.96939453 -0.26466064 -56.96939453 -0.26466064 -55.91796875 -0.53466797 C-37.77031915 -4.97908021 -18.06052135 -4.50537844 0 0 Z " fill="#6200B2" transform="translate(1252,1000)"/>
<path d="M0 0 C1.85238281 0.40025391 1.85238281 0.40025391 3.7421875 0.80859375 C13.66196934 3.12870904 22.10818488 7.13658636 31 12 C32.05058594 12.556875 33.10117187 13.11375 34.18359375 13.6875 C46.00924974 20.22066453 61.60973134 30.45092809 68.36317447 42.41491693 C71.19483359 46.9497104 73.35712263 49.58146871 78.65394491 50.93086089 C83.39008313 51.41688445 88.12838093 51.31679814 92.88237762 51.24609566 C94.73700044 51.25520322 96.59160598 51.26869724 98.44616878 51.28617692 C103.5588982 51.32159726 108.66970296 51.29455041 113.78235167 51.25760114 C119.33790754 51.22844298 124.89320705 51.25723891 130.44875574 51.2787751 C140.19064666 51.30851529 149.93196265 51.30105477 159.67383957 51.26943016 C174.1595499 51.22257343 188.64491816 51.23287187 203.13064925 51.25505381 C227.49645145 51.29163793 251.86203825 51.27987285 276.22782898 51.24249649 C300.35857014 51.20562239 324.48918083 51.1894227 348.61994934 51.20095444 C349.3692911 51.20130313 350.11863286 51.20165181 350.89068195 51.20201107 C357.73474121 51.20520678 364.57880032 51.20865738 371.4228593 51.2124138 C388.43660153 51.22174882 405.45034412 51.22788698 422.46408844 51.23185539 C423.2388661 51.23203867 424.01364375 51.23222195 424.81189952 51.23241079 C462.50254769 51.2410477 500.19315638 51.21285235 537.88378906 51.18164062 C550.96366348 51.17082962 564.043538 51.16018144 577.12341309 51.15020752 C578.34023188 51.1492794 578.34023188 51.1492794 579.58163288 51.14833253 C617.29124956 51.11979308 655.00085468 51.11741468 692.71048024 51.12178687 C695.15854802 51.12207024 697.60661581 51.12234233 700.05468359 51.12261211 C716.27812541 51.12441802 732.50156715 51.12667489 748.72500887 51.12923372 C781.0057679 51.13432121 813.28652697 51.13675899 845.5672864 51.13737648 C847.10458831 51.1374059 848.64189022 51.13743718 850.17919213 51.13747032 C929.59405718 51.13916456 1009.00888983 51.09874602 1157 51 C1158.23967687 55.93365614 1159.47771651 60.86771935 1160.71432304 65.80214596 C1161.13412171 67.47633143 1161.55434654 69.15041011 1161.97502708 70.8243742 C1164.91563033 82.52714843 1167.7618116 94.22728601 1170.125 106.0625 C1170.35997696 107.22073776 1170.35997696 107.22073776 1170.59970093 108.40237427 C1184.09915095 175.12220851 1184.09915095 175.12220851 1184 198 C1183.03809741 197.99884038 1182.07619482 197.99768075 1181.08514367 197.99648599 C1148.15010842 197.95688024 1115.2150701 197.92016485 1082.2800293 197.88549805 C1081.61653458 197.88479941 1080.95303987 197.88410077 1080.26943925 197.88338096 C1009.17758424 197.80860356 938.08574445 197.75284009 866.99385071 197.73554993 C865.41476986 197.73516105 863.835689 197.73477215 862.25660815 197.73438325 C829.11153249 197.72627801 795.96645682 197.72084802 762.82138026 197.7185086 C746.17159453 197.71733057 729.52180889 197.71563846 712.87202326 197.71346027 C710.36046063 197.71313468 707.84889801 197.71282378 705.33733538 197.71251348 C666.66124786 197.70760575 627.98520349 197.69167031 589.30914307 197.64379883 C588.47752733 197.6427697 587.64591159 197.64174058 586.78909538 197.64068027 C573.38092488 197.62402068 559.97275559 197.60643587 546.56458644 197.58872826 C507.94649377 197.53774108 469.3284481 197.4935916 430.71031666 197.49472523 C429.51917046 197.49475519 429.51917046 197.49475519 428.3039607 197.49478577 C410.87187691 197.49534721 393.43979578 197.49942744 376.00771361 197.50683974 C368.99370163 197.50976017 361.97968949 197.51217402 354.96567726 197.51441383 C354.19802272 197.51467119 353.43036818 197.51492855 352.63945138 197.51519371 C327.90267232 197.52323477 303.1661594 197.49003395 278.42944612 197.43521386 C253.51244999 197.38018295 228.59578459 197.36557365 203.67875201 197.40718646 C200.23576416 197.41292629 196.79277576 197.41820239 193.34978676 197.4231987 C192.67486087 197.42419489 191.99993498 197.42519108 191.30455679 197.42621746 C179.96576518 197.4416788 168.62773747 197.4055689 157.28904105 197.35579386 C147.42924648 197.31606309 137.57021587 197.32326663 127.71044899 197.36900597 C122.08741842 197.39373637 116.46645049 197.39770659 110.84357067 197.3445638 C105.72783383 197.29661537 100.61585596 197.30845302 95.50027328 197.36804092 C93.66119484 197.37897802 91.82182491 197.36811261 89.98305293 197.33280356 C79.44810805 196.95753532 79.44810805 196.95753532 70.55591468 201.83925012 C67.68296431 205.00248067 65.37105794 208.45192181 63 212 C46.96869877 230.30679955 24.33641387 242.1001744 1 248 C0.31292969 248.17644043 -0.37414062 248.35288086 -1.08203125 248.53466797 C-19.22968085 252.97908021 -38.93947865 252.50537844 -57 248 C-58.23492188 247.73316406 -59.46984375 247.46632813 -60.7421875 247.19140625 C-70.66196934 244.87129096 -79.10818488 240.86341364 -88 236 C-89.05058594 235.443125 -90.10117187 234.88625 -91.18359375 234.3125 C-120.12912583 218.32134284 -140.46437577 191.52245832 -150.18359375 160.18359375 C-151.2228111 156.47210321 -152.1465884 152.75829338 -153 149 C-153.226875 148.02546875 -153.45375 147.0509375 -153.6875 146.046875 C-159.9974416 113.27023394 -151.77287161 80.64090472 -133.76708984 53.11523438 C-113.21202224 23.15097441 -83.24960796 4.47458865 -47.8125 -2.375 C-31.90513713 -4.3685584 -15.54872657 -3.878786 0 0 Z " fill="#6200B2" transform="translate(700,650)"/>
</svg>
